<svg width="261" height="43" viewBox="0 0 261 43" fill="none" xmlns="http://www.w3.org/2000/svg">
<g clip-path="url(#clip0_344_176)">
<path d="M64.513 0.40634H68.107V25.2485H64.513V0.40634Z" fill="white"/>
<path d="M78.4844 25.3159H75.0927V0L91.0127 19.2162V0.440509H94.4053V25.3159H91.1142L78.4844 9.62472V25.3159Z" fill="white"/>
<path d="M101.39 0.40634H115.731V3.89717H104.984V7.31966V10.4374V12.3694H114.154V15.7586H104.984V19.2836V25.2485H101.39V0.40634Z" fill="white"/>
<path d="M139.644 11.6583C139.33 12.675 138.866 13.5902 138.25 14.4038C137.634 15.2174 136.878 15.9064 135.983 16.4715C135.938 16.5168 135.882 16.551 135.816 16.5731C135.749 16.5962 135.692 16.6295 135.648 16.6747L139.981 25.2827H136.185L132.39 17.7931C132.121 17.8383 131.853 17.8725 131.584 17.8947C131.315 17.9177 131.023 17.9288 130.71 17.9288H126.311V25.2827H122.717V0.373095H130.71C131.718 0.373095 132.664 0.503308 133.549 0.762812C134.433 1.02324 135.244 1.37879 135.984 1.83038C137.798 2.98291 139.018 4.59811 139.645 6.6769C139.667 6.79049 139.69 6.89208 139.712 6.98166C139.733 7.07216 139.767 7.17375 139.812 7.28641V7.45542C139.857 7.56901 139.884 7.69275 139.896 7.82851C139.907 7.96426 139.924 8.10002 139.947 8.23485V8.26902C139.969 8.40477 139.981 8.54053 139.981 8.67536C139.981 8.81111 139.981 8.95795 139.981 9.11587V9.15004V9.21745C139.981 9.35321 139.981 9.48896 139.981 9.62379C139.981 9.75862 139.969 9.8953 139.947 10.0301V10.0975C139.924 10.2333 139.907 10.3635 139.896 10.4873C139.884 10.6119 139.857 10.7412 139.812 10.877V11.0127C139.722 11.263 139.666 11.4782 139.644 11.6583ZM131.146 14.7428C131.885 14.7428 132.562 14.5848 133.178 14.2672C133.794 13.9504 134.325 13.5302 134.773 13.0093C135.221 12.4885 135.579 11.8928 135.848 11.2242C136.117 10.5556 136.25 9.85929 136.25 9.13341C136.25 8.43155 136.116 7.73985 135.848 7.06016C135.578 6.38046 135.221 5.78573 134.773 5.27596C134.325 4.76618 133.793 4.35246 133.178 4.03477C132.562 3.71801 131.885 3.55917 131.146 3.55917H126.343V14.7428H131.146Z" fill="white"/>
<path d="M146.965 25.2143L157.008 0.373095L167.05 25.2143H163.39L162.651 23.2491H151.399L150.626 25.2143H146.965ZM152.608 20.063H161.407L157.008 8.67628L152.608 20.063Z" fill="white"/>
<path d="M191.265 8.26902C191.287 8.40477 191.303 8.54053 191.315 8.67536C191.326 8.81111 191.332 8.95795 191.332 9.11587V9.15004V9.18421C191.332 9.34212 191.326 9.48896 191.315 9.62472C191.303 9.76047 191.287 9.89622 191.265 10.0311V10.0652L191.164 10.8788C191.141 10.9019 191.13 10.9462 191.13 11.0146C191.107 11.1282 191.086 11.2298 191.064 11.3193C191.041 11.4098 191.008 11.5114 190.963 11.6241C190.649 12.664 190.185 13.5893 189.569 14.4029C188.953 15.2165 188.209 15.9054 187.336 16.4706C186.597 16.9231 185.779 17.2787 184.884 17.5382C183.988 17.7986 183.037 17.9279 182.03 17.9279H177.63V25.2817H174.036V0.373095H182.03C184.045 0.373095 185.813 0.858855 187.336 1.83038C188.209 2.39556 188.953 3.08449 189.569 3.89809C190.185 4.7117 190.649 5.62689 190.963 6.64366C191.052 6.89208 191.108 7.10726 191.13 7.28734C191.13 7.35475 191.141 7.40093 191.164 7.42309C191.186 7.55885 191.203 7.6946 191.215 7.82943C191.226 7.96519 191.242 8.08986 191.265 8.20253V8.26902ZM182.465 14.7428C183.204 14.7428 183.881 14.5848 184.497 14.2681C185.113 13.9522 185.65 13.5339 186.11 13.014C186.568 12.495 186.927 11.9011 187.184 11.2344C187.441 10.5685 187.57 9.87314 187.57 9.15004C187.57 8.42694 187.441 7.73246 187.184 7.0657C186.926 6.39985 186.568 5.80604 186.11 5.28611C185.65 4.76711 185.113 4.34876 184.497 4.032C183.881 3.71616 183.204 3.55732 182.465 3.55732H177.662V14.7409H182.465V14.7428Z" fill="white"/>
<path d="M201.911 21.7235H211.954V25.2817H198.318V0.40634H201.912V21.7235H201.911Z" fill="white"/>
<path d="M232.004 0.40634H235.531V17.0127C235.531 18.1652 235.312 19.2383 234.875 20.232C234.439 21.2266 233.839 22.091 233.079 22.8243C232.317 23.5585 231.433 24.1403 230.426 24.5697C229.418 24.9991 228.332 25.2134 227.167 25.2134C226.025 25.2134 224.956 24.9991 223.96 24.5697C222.963 24.1412 222.09 23.5585 221.34 22.8243C220.59 22.0901 220.002 21.2266 219.577 20.232C219.151 19.2383 218.939 18.1643 218.939 17.0127V0.40634H222.465V17.0127C222.465 17.6684 222.588 18.2835 222.835 18.8597C223.081 19.436 223.417 19.9439 223.842 20.3844C224.267 20.8249 224.771 21.1694 225.353 21.4178C225.936 21.6672 226.551 21.7909 227.2 21.7909C227.872 21.7909 228.499 21.6672 229.081 21.4178C229.663 21.1694 230.173 20.8249 230.609 20.3844C231.046 19.9439 231.387 19.4351 231.634 18.8597C231.88 18.2835 232.003 17.6684 232.003 17.0127V0.40634H232.004Z" fill="white"/>
<path d="M256.65 6.7554C256.213 4.37277 254.481 3.18146 251.452 3.18146C249.835 3.18146 248.591 3.53793 247.717 4.24995C246.844 4.96289 246.409 5.81713 246.409 6.81451C246.409 7.81189 246.679 8.56916 247.217 9.08724C247.756 9.60532 248.628 10.0588 249.835 10.4466L254.879 12.1948C256.599 12.7914 257.965 13.6068 258.979 14.6421C259.993 15.6783 260.5 17.1355 260.5 19.013C260.5 20.8914 259.704 22.4706 258.113 23.7524C256.522 25.0342 254.391 25.6751 251.722 25.6751C249.053 25.6751 246.864 24.9954 245.158 23.6351C243.451 22.2757 242.571 20.3659 242.52 17.9048H245.484C245.484 19.5108 246.043 20.7409 247.159 21.5951C248.276 22.4494 249.713 22.8769 251.472 22.8769C253.23 22.8769 254.622 22.4826 255.649 21.6921C256.674 20.9025 257.189 19.9698 257.189 18.8948C257.189 17.8208 256.874 16.9721 256.245 16.3506C255.616 15.7291 254.686 15.211 253.454 14.7963L249.18 13.2033C247.177 12.53 245.663 11.7266 244.637 10.7948C243.61 9.86206 243.097 8.4962 243.097 6.6963C243.097 4.8964 243.815 3.39386 245.253 2.18962C246.69 0.985375 248.705 0.383253 251.298 0.383253C253.89 0.383253 255.873 0.959517 257.247 2.11205C258.619 3.26457 259.408 4.81236 259.614 6.75448H256.65V6.7554Z" fill="white"/>
<path d="M88.5068 40.6231C88.4254 41.3869 88.1572 41.9705 87.7033 42.375C87.2493 42.7795 86.6444 42.9827 85.8894 42.9827C85.3622 42.9827 84.8954 42.8478 84.49 42.5791C84.0846 42.3104 83.7716 41.9299 83.5501 41.4367C83.3286 40.9436 83.216 40.3802 83.2133 39.7467V38.8057C83.2133 38.162 83.324 37.5913 83.5455 37.0935C83.767 36.5957 84.0855 36.2116 84.5001 35.941C84.9156 35.6704 85.3933 35.5356 85.9333 35.5356C86.6947 35.5356 87.2969 35.7443 87.7381 36.1626C88.1792 36.581 88.4354 37.16 88.5068 37.8997H87.901C87.7509 36.6687 87.0947 36.0527 85.9324 36.0527C85.2881 36.0527 84.7737 36.2984 84.3912 36.7897C84.0086 37.281 83.8173 37.9607 83.8173 38.8269V39.7135C83.8173 40.5502 84.004 41.2179 84.3765 41.7166C84.749 42.2143 85.2533 42.4637 85.8884 42.4637C86.5172 42.4637 86.9903 42.3104 87.3098 42.0028C87.6292 41.6962 87.8259 41.2354 87.901 40.6213H88.5068V40.6231Z" fill="white"/>
<path d="M105.224 39.6514C105.224 40.3182 105.11 40.9046 104.884 41.4088C104.658 41.913 104.335 42.3018 103.915 42.5733C103.495 42.8458 103.01 42.9815 102.46 42.9815C101.63 42.9815 100.959 42.6786 100.447 42.0728C99.9359 41.467 99.6805 40.6497 99.6805 39.6209V38.8738C99.6805 38.2135 99.7949 37.6289 100.025 37.1192C100.254 36.6094 100.579 36.2178 100.999 35.9445C101.419 35.6711 101.903 35.5335 102.45 35.5335C102.997 35.5335 103.48 35.6683 103.898 35.9371C104.316 36.2058 104.639 36.5863 104.867 37.0767C105.095 37.568 105.214 38.1369 105.224 38.7842V39.6514ZM104.624 38.8655C104.624 37.9928 104.43 37.3094 104.042 36.8144C103.655 36.3203 103.124 36.0728 102.45 36.0728C101.789 36.0728 101.262 36.3213 100.87 36.8172C100.478 37.3131 100.282 38.0057 100.282 38.895V39.6514C100.282 40.5112 100.477 41.1918 100.868 41.6951C101.258 42.1984 101.789 42.4496 102.46 42.4496C103.141 42.4496 103.671 42.2012 104.052 41.7053C104.433 41.2093 104.624 40.5176 104.624 39.632V38.8655Z" fill="white"/>
<path d="M122.033 42.8827H121.433L117.346 36.6805V42.8827H116.74V35.6351H117.346L121.439 41.8429V35.6351H122.034V42.8827H122.033Z" fill="white"/>
<path d="M137.867 41.1004C137.867 40.6986 137.729 40.381 137.452 40.1473C137.175 39.9137 136.668 39.6911 135.933 39.4805C135.197 39.27 134.66 39.04 134.321 38.7907C133.839 38.4388 133.598 37.978 133.598 37.4073C133.598 36.8532 133.822 36.4025 134.27 36.0562C134.717 35.7099 135.289 35.5363 135.987 35.5363C136.459 35.5363 136.881 35.6295 137.254 35.8152C137.627 36.0008 137.916 36.2603 138.121 36.5918C138.326 36.9234 138.428 37.2937 138.428 37.7019H137.823C137.823 37.206 137.657 36.807 137.325 36.5059C136.992 36.2049 136.547 36.0544 135.987 36.0544C135.443 36.0544 135.01 36.1781 134.688 36.4256C134.366 36.6731 134.205 36.9963 134.205 37.3953C134.205 37.7647 134.349 38.0648 134.639 38.2975C134.93 38.5303 135.394 38.7353 136.032 38.9135C136.669 39.0917 137.153 39.2755 137.482 39.4667C137.811 39.6579 138.059 39.886 138.224 40.151C138.39 40.416 138.473 40.73 138.473 41.092C138.473 41.6628 138.249 42.1208 137.802 42.4662C137.354 42.8116 136.764 42.9843 136.032 42.9843C135.53 42.9843 135.071 42.8929 134.651 42.7109C134.232 42.529 133.916 42.2732 133.699 41.9444C133.482 41.6157 133.374 41.2389 133.374 40.8141H133.974C133.974 41.3248 134.161 41.7283 134.536 42.0239C134.91 42.3194 135.408 42.4671 136.031 42.4671C136.584 42.4671 137.028 42.3425 137.364 42.094C137.699 41.8419 137.867 41.5122 137.867 41.1004Z" fill="white"/>
<path d="M154.668 35.6351V40.5832C154.664 41.0708 154.559 41.4956 154.35 41.8576C154.142 42.2196 153.848 42.4976 153.469 42.6916C153.09 42.8855 152.654 42.9825 152.163 42.9825C151.414 42.9825 150.814 42.7747 150.364 42.3582C149.912 41.9417 149.679 41.3654 149.663 40.6285V35.636H150.258V40.5389C150.258 41.1493 150.429 41.6231 150.771 41.9601C151.113 42.2972 151.577 42.4653 152.163 42.4653C152.749 42.4653 153.212 42.2963 153.552 41.9574C153.893 41.6184 154.063 41.1475 154.063 40.5435V35.6351H154.668Z" fill="white"/>
<path d="M166.951 42.3646H170.462V42.8827H166.345V35.6351H166.951V42.3646Z" fill="white"/>
<path d="M185.098 36.1522H182.661V42.8827H182.061V36.1522H179.628V35.6342H185.098V36.1522Z" fill="white"/>
<path d="M196.98 42.8827H196.38V35.6351H196.98V42.8827Z" fill="white"/>
<path d="M214.206 42.8827H213.606L209.518 36.6805V42.8827H208.912V35.6351H209.518L213.611 41.8429V35.6351H214.206V42.8827Z" fill="white"/>
<path d="M231.148 42.0211C230.939 42.3231 230.613 42.5586 230.168 42.7276C229.724 42.8966 229.227 42.9815 228.677 42.9815C228.12 42.9815 227.625 42.8458 227.192 42.5733C226.759 42.3009 226.423 41.9158 226.186 41.418C225.948 40.9203 225.828 40.3496 225.825 39.7059V38.7898C225.825 37.7841 226.074 36.9899 226.573 36.4081C227.071 35.8263 227.739 35.5344 228.58 35.5344C229.312 35.5344 229.901 35.7247 230.348 36.1042C230.793 36.4847 231.059 37.0074 231.144 37.6751H230.544C230.456 37.1422 230.243 36.7387 229.907 36.4644C229.57 36.1901 229.13 36.0525 228.586 36.0525C227.922 36.0525 227.396 36.2935 227.008 36.7747C226.62 37.2558 226.427 37.9355 226.427 38.8119V39.6689C226.427 40.2203 226.519 40.7079 226.702 41.1308C226.886 41.5547 227.15 41.8826 227.493 42.1144C227.836 42.3471 228.232 42.4634 228.677 42.4634C229.195 42.4634 229.639 42.3803 230.011 42.2141C230.252 42.1042 230.431 41.9768 230.548 41.8308V39.9589H228.638V39.4408H231.149V42.0211H231.148Z" fill="white"/>
<path d="M34.6316 6.90501C34.6316 6.90501 39.2735 7.73154 39.2735 12.6907C39.2735 17.6499 34.6316 17.6499 34.6316 17.6499H24.5287V6.90501C24.5287 6.90501 24.5287 0.291826 17.1558 0.291826V17.6499H5.96102C5.96102 17.6499 0.5 17.6499 0.5 25.0896H17.1567V36.6629C17.1567 36.6629 16.884 43 24.5296 43V25.0906H37.0898C37.0898 25.0906 46.6464 23.9888 46.6464 13.243C46.6464 2.49714 37.6353 0.29275 37.0898 0.29275C36.5434 0.29275 28.6251 0.29275 28.6251 0.29275C28.6251 0.29275 28.6251 6.90501 34.6316 6.90501Z" fill="url(#paint0_linear_344_176)"/>
</g>
<defs>
<linearGradient id="paint0_linear_344_176" x1="0.5" y1="21.6464" x2="46.6465" y2="21.6464" gradientUnits="userSpaceOnUse">
<stop stop-color="#1B2C82"/>
<stop offset="1" stop-color="#26CFCE"/>
</linearGradient>
<clipPath id="clip0_344_176">
<rect width="260" height="43" fill="white" transform="translate(0.5)"/>
</clipPath>
</defs>
</svg>
